# xmcd
#
# Track frame offsets: 
#        150
#        21317
#        44667
#        65680
#        91040
#        112967
#        136915
#        156532
#        175427
#        192315
#
# Disc length: 2778 seconds
#
# Revision: 5
# Processed by: cddbd v1.5.2PL0 Copyright (c) Steve Scherf et al.
# Submitted via: ExactAudioCopy v1.0b3
#
DISCID=8d0ad80a
DTITLE=Isley Brothers - Between The Sheets_JP
DYEAR=1991
DGENRE=Soul
TTITLE0=Choosey Lover
TTITLE1=Touch Me
TTITLE2=I Need Your Body
TTITLE3=Between The Sheets
TTITLE4=Let's Make Love Tonight
TTITLE5=Ballad For The Fallen Soldier
TTITLE6=Slow Down Children
TTITLE7=Way Out Love
TTITLE8=Gettin' Over
TTITLE9=Rock You Good
EXTD=YEAR: 1983
EXTT0=
EXTT1=
EXTT2=
EXTT3=
EXTT4=
EXTT5=
EXTT6=
EXTT7=
EXTT8=
EXTT9=
PLAYORDER=
